<svg xmlns="http://www.w3.org/2000/svg" viewBox="0 0 404.69 117.28"><defs><style>.cls-1{fill:#929497;}.cls-2{font-size:82.24px;font-family:ProximaNova-Regular, Proxima Nova;letter-spacing:-0.02em;}.cls-2,.cls-6{fill:#1688c9;}.cls-3{fill:#25a9e0;}.cls-4{fill:#00adee;}.cls-5{fill:#fff;}</style></defs><title>SVG</title><g id="Layer_2" data-name="Layer 2"><g id="Board_1" data-name="Board 1"><g id="SYKES"><path class="cls-1" d="M91.3,8.45a2.47,2.47,0,0,0-.9-2.13,4.06,4.06,0,0,0-2.65-.76c-1.58,0-3,1-3,2.19,0,1.76,2.21,2.32,4,2.78C93,11.56,99,12,99,18.43c0,5-5.16,7.42-10.91,7.42s-10.87-1.62-11-8.12H84c0,2.25,1.68,3.48,4.16,3.48,1.58,0,3.61-.8,3.61-2.39,0-3.25-5.09-2.55-10.49-4.84a6,6,0,0,1-3.76-5.83C77.84,2.48,83,.92,88.2.92s10.39,1.76,10,7.53H91.3"/><polygon class="cls-1" points="105.16 16.6 95.66 1.42 103.65 1.42 109.09 11.46 114.69 1.42 121.79 1.42 112.05 16.6 112.05 25.35 105.16 25.35 105.16 16.6"/><polygon class="cls-1" points="136.16 1.42 144.32 1.42 135.75 11.96 145.01 25.35 136.47 25.35 128.28 12.62 128.21 12.62 128.21 25.35 121.33 25.35 121.33 1.42 128.21 1.42 128.21 11.93 128.28 11.93 136.16 1.42"/><polygon class="cls-1" points="145.22 25.35 145.22 1.42 164.16 1.42 164.16 6.06 152.11 6.06 152.11 11 163.19 11 163.19 15.64 152.11 15.64 152.11 20.71 164.16 20.71 164.16 25.35 145.22 25.35"/><path class="cls-1" d="M177.63,8.45a2.47,2.47,0,0,0-.9-2.13,4,4,0,0,0-2.65-.76c-1.58,0-3,1-3,2.19,0,1.76,2.21,2.32,4,2.78,4.17,1,10.22,1.43,10.22,7.9,0,5-5.16,7.42-10.9,7.42s-10.88-1.62-11-8.12h6.89c0,2.25,1.68,3.48,4.16,3.48,1.58,0,3.62-.8,3.62-2.39,0-3.25-5.1-2.55-10.5-4.84a6,6,0,0,1-3.75-5.83c.27-5.67,5.44-7.23,10.63-7.23s10.4,1.76,10,7.53h-6.88"/><path class="cls-1" d="M187.69,2.69c.52,0,.64-.24.64-.51s-.12-.41-.56-.41h-.68v.92h.6m-.6.56V4.8h-.56V1.21h1.16c.66,0,1.35.18,1.35,1a.84.84,0,0,1-.74.84v0c.5.09.56.31.61.7a4.59,4.59,0,0,0,.22,1h-.72c0-.2-.1-.43-.12-.64a1.35,1.35,0,0,0-.21-.77c-.13-.14-.32-.12-.51-.14Zm3.16-.2a2.52,2.52,0,1,0-2.51,2.52,2.51,2.51,0,0,0,2.51-2.52m-5.57,0a3.06,3.06,0,1,1,3.06,3.06,3.06,3.06,0,0,1-3.06-3.06"/></g><text class="cls-2" transform="translate(72.79 90.55)">Navigator</text><path id="BG_Left" data-name="BG Left" class="cls-3" d="M2.17,62.89c0,.39,0,.78,0,1.17a29.2,29.2,0,0,0,29.17,28V33.68A29.21,29.21,0,0,0,2.17,62.89Z"/><path id="BG_Right" data-name="BG Right" class="cls-4" d="M54.38,44.9a29.14,29.14,0,0,0-23-11.22V92.09a29.2,29.2,0,0,0,23-47.19Z"/><path id="White_Arrow" data-name="White Arrow" class="cls-5" d="M38.61,61.18,44,50.28,33.08,55.65a7.42,7.42,0,0,0-8.94,8.94L18.76,75.5l10.91-5.38a7.42,7.42,0,0,0,8.94-8.94Zm-9.8,5.25a4.38,4.38,0,1,1,5.13,0A4.37,4.37,0,0,1,28.81,66.43Z"/><g id="Blue_Arrows" data-name="Blue Arrows"><polygon class="cls-6" points="25.86 92.09 31.37 92.09 36.88 92.09 31.37 83.44 25.86 92.09"/><polygon class="cls-6" points="25.86 33.69 31.37 42.34 36.88 33.69 31.37 33.69 25.86 33.69"/><polygon class="cls-6" points="2.17 62.89 2.17 68.4 10.82 62.89 2.17 57.38 2.17 62.89"/><polygon class="cls-6" points="51.92 62.89 60.58 68.4 60.58 62.89 60.58 57.38 51.92 62.89"/></g><g id="Dots"><circle class="cls-5" cx="49.11" cy="45.44" r="0.88"/><circle class="cls-5" cx="13.64" cy="80.33" r="0.88"/><circle class="cls-5" cx="48.96" cy="80.48" r="0.88"/><circle class="cls-5" cx="13.78" cy="45.3" r="0.88"/></g><path id="Outline" class="cls-6" d="M31.37,31.15A31.38,31.38,0,1,0,62.75,62.52,31.38,31.38,0,0,0,31.37,31.15Zm0,58.42a27,27,0,1,1,27.05-27A27,27,0,0,1,31.37,89.57Z"/><rect id="Chain" class="cls-6" x="27.19" y="23.39" width="8.38" height="12.08" rx="3.99"/><path id="Ring" class="cls-6" d="M31.37,13.19A8.63,8.63,0,1,0,40,21.82,8.62,8.62,0,0,0,31.37,13.19Zm0,13.39a4.77,4.77,0,1,1,4.76-4.76A4.76,4.76,0,0,1,31.37,26.58Z"/></g></g></svg>